<?xml version="1.0" encoding="UTF-8" standalone="no"?>
<!-- Created with Inkscape (http://www.inkscape.org/) -->

<svg
   version="1.1"
   id="Layer_1"
   x="0px"
   y="0px"
   width="420.97101"
   height="420.966"
   viewBox="0 0 420.97101 420.966"
   enable-background="new 0 0 600 600"
   xml:space="preserve"
   inkscape:version="1.4.2 (ebf0e94, 2025-05-08)"
   sodipodi:docname="icon.svg"
   xmlns:inkscape="http://www.inkscape.org/namespaces/inkscape"
   xmlns:sodipodi="http://sodipodi.sourceforge.net/DTD/sodipodi-0.dtd"
   xmlns="http://www.w3.org/2000/svg"
   xmlns:svg="http://www.w3.org/2000/svg"
   xmlns:rdf="http://www.w3.org/1999/02/22-rdf-syntax-ns#"
   xmlns:cc="http://creativecommons.org/ns#"
   xmlns:dc="http://purl.org/dc/elements/1.1/"><title
     id="title1">nCine Logo</title><metadata
     id="metadata4159"><rdf:RDF><cc:Work
         rdf:about=""><dc:format>image/svg+xml</dc:format><dc:type
           rdf:resource="http://purl.org/dc/dcmitype/StillImage" /><dc:title>nCine Logo</dc:title></cc:Work></rdf:RDF></metadata><defs
     id="defs4157" /><sodipodi:namedview
     pagecolor="#ffffff"
     bordercolor="#666666"
     borderopacity="1"
     objecttolerance="10"
     gridtolerance="10"
     guidetolerance="10"
     inkscape:pageopacity="0"
     inkscape:pageshadow="2"
     inkscape:window-width="2560"
     inkscape:window-height="1368"
     id="namedview4155"
     showgrid="false"
     inkscape:zoom="1.4133333"
     inkscape:cx="210.14151"
     inkscape:cy="209.78774"
     inkscape:window-x="0"
     inkscape:window-y="0"
     inkscape:window-maximized="1"
     inkscape:current-layer="Layer_1"
     inkscape:showpageshadow="true"
     inkscape:pagecheckerboard="true"
     inkscape:deskcolor="#d1d1d1"
     inkscape:antialias-rendering="true"
     inkscape:clip-to-page="false"
     labelstyle="default" /><g
     enable-background="new    "
     id="g4137"
     transform="translate(-89.515,-89.517)"><path
       fill="#96c43d"
       d="m 510.485,472.483 c 0,20.9 -17.1,38 -38,38 h -344.97 c -20.9,0 -38,-17.1 -38,-38 V 127.517 c 0,-20.9 17.1,-38 38,-38 h 344.971 c 20.9,0 38,17.1 38,38 v 344.966 z"
       id="path4139" /></g><g
     id="g4141"
     transform="translate(-89.515,-89.517)"><path
       fill="#ffffff"
       d="m 217.232,396.357 -0.35,0.241 v -0.702 c 0.112,0.168 0.232,0.289 0.35,0.461 z"
       id="path4143" /><path
       fill="#ffffff"
       d="m 217.232,396.357 -0.35,0.241 v -0.702 c 0.112,0.168 0.232,0.289 0.35,0.461 z"
       id="path4145" /><g
       id="g4147"><path
         fill="#ffffff"
         d="m 420.893,299.695 c 0,62.265 -47.189,113.482 -107.726,119.96 v -27.746 l 0.043,-114.373 19.153,15.48 v 102.972 c 40.124,-13.394 68.996,-51.293 68.996,-95.938 0,-2.493 -0.105,-4.943 -0.259,-7.426 0,0 0,-0.048 0,-0.1 -1.222,-16.403 -6.367,-31.678 -14.515,-44.97 -0.51,-0.917 -1.119,-1.884 -1.734,-2.75 -1.176,-1.818 -2.449,-3.598 -3.713,-5.283 -1.469,-1.991 -3.045,-3.927 -4.648,-5.813 -0.541,-0.614 -1.053,-1.224 -1.613,-1.833 -1.373,-1.532 -2.796,-2.996 -4.284,-4.42 -0.763,-0.764 -1.582,-1.53 -2.401,-2.245 -0.046,-0.052 -0.098,-0.103 -0.197,-0.155 -0.716,-0.714 -1.457,-1.373 -2.271,-2.038 -0.918,-0.767 -1.838,-1.58 -2.811,-2.295 -0.765,-0.613 -1.471,-1.171 -2.244,-1.73 -4.806,-3.589 -9.921,-6.731 -15.327,-9.402 1.669,0.849 3.308,1.8 4.994,2.787 -14.767,-8.443 -31.873,-13.341 -50.092,-13.341 -11.302,0 -22.166,1.888 -32.286,5.29 -0.215,0.05 -0.412,0.15 -0.57,0.199 -2.803,1.071 -5.589,2.197 -8.391,3.469 -14.054,6.421 -26.325,15.937 -35.999,27.65 v -0.103 c -0.816,0.967 -1.628,1.988 -2.388,2.957 -2.095,2.708 -4.036,5.542 -5.816,8.449 -4.079,6.579 -7.483,13.645 -9.975,21.092 -1.226,3.396 -2.244,6.912 -3.064,10.481 -0.044,0.304 -0.096,0.611 -0.151,0.867 -0.767,3.297 -1.329,6.61 -1.734,9.977 0,0.149 -0.046,0.203 -0.046,0.31 -0.413,3.311 -0.613,6.661 -0.665,10.021 -0.055,0.305 -0.101,0.615 -0.101,0.914 v 0.617 c 0,0.155 0,0.359 0.046,0.508 -0.046,0.103 -0.046,0.153 -0.046,0.258 v 96.287 L 179.1,414.404 V 299.695 c 0.159,-29.076 10.593,-55.809 27.904,-76.628 2.397,-2.852 4.88,-5.659 7.535,-8.293 0.662,-0.613 1.328,-1.273 1.986,-1.935 1.075,-1.019 2.138,-2.041 3.214,-2.956 l 0.608,-0.612 c 0.106,-0.101 0.211,-0.207 0.355,-0.258 21.177,-18.691 49.081,-29.99 79.542,-29.99 1.02,0 2.021,0 3.036,0.048 0.046,0 0.046,0 0.046,0 2.146,0.048 4.295,0.151 6.381,0.356 1.987,0.101 3.915,0.306 5.863,0.558 1.862,0.205 3.7,0.515 5.494,0.868 0.907,0.156 1.825,0.306 2.745,0.515 0.899,0.15 1.832,0.353 2.737,0.559 0.719,0.151 1.435,0.355 2.142,0.509 1.835,0.404 3.677,0.916 5.398,1.426 0.817,0.255 1.684,0.507 2.499,0.768 0.312,0.1 0.621,0.199 0.904,0.301 0.823,0.257 1.595,0.511 2.398,0.812 0.973,0.312 1.937,0.668 2.91,1.024 0.905,0.356 1.836,0.716 2.797,1.122 1.893,0.763 3.729,1.53 5.514,2.398 0.958,0.444 1.832,0.846 2.723,1.306 0.931,0.458 1.795,0.919 2.655,1.376 0.921,0.459 1.793,0.918 2.655,1.427 0.914,0.459 1.731,0.969 2.593,1.482 1.026,0.609 1.946,1.171 2.902,1.781 0.958,0.61 1.934,1.279 2.851,1.888 0.916,0.613 1.835,1.274 2.803,1.938 0.918,0.614 1.831,1.273 2.703,1.969 0.512,0.375 0.971,0.766 1.475,1.126 0.819,0.606 1.636,1.27 2.403,1.935 0.715,0.561 1.361,1.122 2.07,1.734 1.373,1.223 2.755,2.495 4.126,3.771 0.055,0.048 0.106,0.048 0.158,0.1 0.66,0.667 1.371,1.327 2.039,2.038 0.709,0.665 1.379,1.322 2.038,2.025 0.706,0.763 1.426,1.479 2.087,2.245 0.047,0.049 0.104,0.096 0.151,0.153 0.772,0.862 1.58,1.785 2.323,2.647 0.725,0.819 1.386,1.683 2.099,2.5 0.36,0.509 0.771,0.967 1.174,1.479 2.907,3.567 5.556,7.321 7.955,11.249 0.408,0.613 0.765,1.226 1.117,1.886 0.099,0.154 0.153,0.255 0.24,0.458 0,0.106 0.048,0.154 0.112,0.208 0.046,0.154 0.103,0.202 0.154,0.353 0.056,0.103 0.136,0.206 0.189,0.306 10.198,17.66 15.99,38.139 15.99,60.028 z"
         id="path4149" /><path
         fill="#ffffff"
         d="m 204.818,393.59 15.831,-12.786 V 247.609 c -9.929,14.919 -15.727,32.844 -15.831,52.086 z"
         id="path4151" /><path
         fill="#ffffff"
         d="m 299.984,147.275 c -31.877,0 -61.504,9.769 -85.974,26.477 -1.787,1.206 -3.504,2.43 -5.221,3.703 -10.104,-14.156 -24.672,-21.714 -37.127,-25.763 -12.46,-4.041 -22.814,-4.571 -24.491,-4.642 v 293.072 h 0.1 l 25.15,-20.312 V 299.695 c 0,-39.815 18.193,-75.354 46.763,-98.771 0,0 0,0 0,-0.018 1.993,-1.645 4.083,-3.264 6.21,-4.807 0.598,-0.492 1.245,-0.919 1.869,-1.325 0.26,-0.239 0.548,-0.429 0.834,-0.581 0.296,-0.204 0.54,-0.408 0.833,-0.542 0.409,-0.324 0.831,-0.58 1.243,-0.87 0.781,-0.503 1.545,-0.998 2.317,-1.496 0.793,-0.49 1.552,-0.946 2.371,-1.408 1.037,-0.662 2.072,-1.255 3.129,-1.833 1.239,-0.694 2.448,-1.363 3.696,-1.988 1.195,-0.597 2.367,-1.208 3.581,-1.75 5.466,-2.585 11.122,-4.811 16.989,-6.614 12,-3.805 24.763,-5.776 37.959,-5.776 59.702,0 109.77,40.889 123.782,96.188 0.535,2.038 1.031,4.115 1.432,6.204 0.23,1.035 0.433,2.069 0.6,3.143 0.171,0.885 0.316,1.752 0.457,2.636 0.364,2.275 0.665,4.604 0.902,6.935 0.102,1.104 0.203,2.16 0.297,3.244 0.062,1.071 0.128,2.158 0.2,3.265 0.051,0.952 0.068,1.917 0.097,2.874 0.041,1.085 0.041,2.208 0.041,3.309 0,28.835 -9.588,55.487 -25.752,76.886 -0.056,0.086 -0.096,0.17 -0.163,0.252 -0.749,1.017 -1.517,1.981 -2.305,2.978 -0.98,1.206 -1.991,2.404 -2.982,3.586 -0.928,1.067 -1.874,2.101 -2.824,3.144 -0.529,0.537 -1.03,1.114 -1.583,1.665 -0.576,0.624 -1.2,1.269 -1.822,1.866 -0.707,0.708 -1.452,1.426 -2.174,2.126 -0.731,0.695 -1.441,1.36 -2.156,2.024 -1.559,1.387 -3.141,2.784 -4.751,4.11 -0.771,0.679 -1.584,1.342 -2.383,1.922 -1.614,1.255 -3.246,2.469 -4.917,3.673 -19.026,13.503 -41.892,21.963 -66.677,23.345 V 272.948 l -19.154,-15.48 v 42.243 l -0.041,95.206 v 57.572 c 3.857,0.307 7.732,0.461 11.645,0.461 84.408,0 152.844,-68.431 152.844,-152.844 0,-84.397 -68.435,-152.831 -152.844,-152.831 z"
         id="path4153" /></g></g></svg>
